<mxfile modified="2021-03-30T00:36:59.697Z" host="app.diagrams.net" agent="5.0 (Macintosh; Intel Mac OS X 11_1_0) AppleWebKit/537.36 (KHTML, like Gecko) Chrome/89.0.4389.90 Safari/537.36" etag="Hqiv2i8Zoxwsshqr_yfa" version="14.5.3" type="github" pages="2">
  <diagram id="Ht1M8jgEwFfnCIfOTk4-" name="Page-1">
    <mxGraphModel dx="1694" dy="840" grid="1" gridSize="10" guides="1" tooltips="1" connect="1" arrows="1" fold="1" page="1" pageScale="1" pageWidth="1654" pageHeight="1169" math="0" shadow="0">
      <root>
        <mxCell id="0" />
        <mxCell id="1" parent="0" />
        <mxCell id="MXCVZ1fmfa9OyLUcDdwy-185" value="Private subnet" style="points=[[0,0],[0.25,0],[0.5,0],[0.75,0],[1,0],[1,0.25],[1,0.5],[1,0.75],[1,1],[0.75,1],[0.5,1],[0.25,1],[0,1],[0,0.75],[0,0.5],[0,0.25]];outlineConnect=0;gradientColor=none;html=1;whiteSpace=wrap;fontSize=12;fontStyle=0;shape=mxgraph.aws4.group;grIcon=mxgraph.aws4.group_security_group;grStroke=0;strokeColor=#147EBA;fillColor=#E6F2F8;verticalAlign=top;align=left;spacingLeft=30;fontColor=#147EBA;dashed=0;" vertex="1" parent="1">
          <mxGeometry x="480" y="360" width="160" height="120" as="geometry" />
        </mxCell>
        <mxCell id="MXCVZ1fmfa9OyLUcDdwy-182" value="Private subnet" style="points=[[0,0],[0.25,0],[0.5,0],[0.75,0],[1,0],[1,0.25],[1,0.5],[1,0.75],[1,1],[0.75,1],[0.5,1],[0.25,1],[0,1],[0,0.75],[0,0.5],[0,0.25]];outlineConnect=0;gradientColor=none;html=1;whiteSpace=wrap;fontSize=12;fontStyle=0;shape=mxgraph.aws4.group;grIcon=mxgraph.aws4.group_security_group;grStroke=0;strokeColor=#147EBA;fillColor=#E6F2F8;verticalAlign=top;align=left;spacingLeft=30;fontColor=#147EBA;dashed=0;" vertex="1" parent="1">
          <mxGeometry x="680" y="360" width="160" height="120" as="geometry" />
        </mxCell>
        <mxCell id="UEzPUAAOIrF-is8g5C7q-74" value="AWS Cloud" style="points=[[0,0],[0.25,0],[0.5,0],[0.75,0],[1,0],[1,0.25],[1,0.5],[1,0.75],[1,1],[0.75,1],[0.5,1],[0.25,1],[0,1],[0,0.75],[0,0.5],[0,0.25]];outlineConnect=0;gradientColor=none;html=1;whiteSpace=wrap;fontSize=12;fontStyle=0;shape=mxgraph.aws4.group;grIcon=mxgraph.aws4.group_aws_cloud_alt;strokeColor=#232F3E;fillColor=none;verticalAlign=top;align=left;spacingLeft=30;fontColor=#232F3E;dashed=0;labelBackgroundColor=#ffffff;" parent="1" vertex="1">
          <mxGeometry x="40" y="80" width="1000" height="920" as="geometry" />
        </mxCell>
        <mxCell id="MXCVZ1fmfa9OyLUcDdwy-176" value="VPC" style="points=[[0,0],[0.25,0],[0.5,0],[0.75,0],[1,0],[1,0.25],[1,0.5],[1,0.75],[1,1],[0.75,1],[0.5,1],[0.25,1],[0,1],[0,0.75],[0,0.5],[0,0.25]];outlineConnect=0;gradientColor=none;html=1;whiteSpace=wrap;fontSize=12;fontStyle=0;shape=mxgraph.aws4.group;grIcon=mxgraph.aws4.group_vpc;strokeColor=#248814;fillColor=none;verticalAlign=top;align=left;spacingLeft=30;fontColor=#AAB7B8;dashed=0;" vertex="1" parent="1">
          <mxGeometry x="80" y="120" width="930" height="840" as="geometry" />
        </mxCell>
        <mxCell id="MXCVZ1fmfa9OyLUcDdwy-174" value="Availability Zone" style="fillColor=none;strokeColor=#147EBA;dashed=1;verticalAlign=top;fontStyle=0;fontColor=#147EBA;" vertex="1" parent="1">
          <mxGeometry x="665" y="160" width="310" height="780" as="geometry" />
        </mxCell>
        <mxCell id="MXCVZ1fmfa9OyLUcDdwy-173" value="Auto Scaling group" style="points=[[0,0],[0.25,0],[0.5,0],[0.75,0],[1,0],[1,0.25],[1,0.5],[1,0.75],[1,1],[0.75,1],[0.5,1],[0.25,1],[0,1],[0,0.75],[0,0.5],[0,0.25]];outlineConnect=0;gradientColor=none;html=1;whiteSpace=wrap;fontSize=12;fontStyle=0;shape=mxgraph.aws4.groupCenter;grIcon=mxgraph.aws4.group_auto_scaling_group;grStroke=1;strokeColor=#D86613;fillColor=none;verticalAlign=top;align=center;fontColor=#D86613;dashed=1;spacingTop=25;" vertex="1" parent="1">
          <mxGeometry x="430" y="355" width="450" height="135" as="geometry" />
        </mxCell>
        <mxCell id="ygy6zVu2oY6K5pSB8dA6-4" value="AWS Cloud" style="points=[[0,0],[0.25,0],[0.5,0],[0.75,0],[1,0],[1,0.25],[1,0.5],[1,0.75],[1,1],[0.75,1],[0.5,1],[0.25,1],[0,1],[0,0.75],[0,0.5],[0,0.25]];outlineConnect=0;gradientColor=none;html=1;whiteSpace=wrap;fontSize=12;fontStyle=0;shape=mxgraph.aws4.group;grIcon=mxgraph.aws4.group_aws_cloud;strokeColor=#232F3E;fillColor=none;verticalAlign=top;align=left;spacingLeft=30;fontColor=#232F3E;dashed=0;" vertex="1" parent="1">
          <mxGeometry x="1080" y="80" width="330" height="920" as="geometry" />
        </mxCell>
        <mxCell id="MXCVZ1fmfa9OyLUcDdwy-172" value="Availability Zone" style="fillColor=none;strokeColor=#147EBA;dashed=1;verticalAlign=top;fontStyle=0;fontColor=#147EBA;" vertex="1" parent="1">
          <mxGeometry x="120" y="160" width="530" height="780" as="geometry" />
        </mxCell>
        <mxCell id="MXCVZ1fmfa9OyLUcDdwy-177" value="Public subnet" style="points=[[0,0],[0.25,0],[0.5,0],[0.75,0],[1,0],[1,0.25],[1,0.5],[1,0.75],[1,1],[0.75,1],[0.5,1],[0.25,1],[0,1],[0,0.75],[0,0.5],[0,0.25]];outlineConnect=0;gradientColor=none;html=1;whiteSpace=wrap;fontSize=12;fontStyle=0;shape=mxgraph.aws4.group;grIcon=mxgraph.aws4.group_security_group;grStroke=0;strokeColor=#248814;fillColor=#E9F3E6;verticalAlign=top;align=left;spacingLeft=30;fontColor=#248814;dashed=0;" vertex="1" parent="1">
          <mxGeometry x="480" y="200" width="160" height="110" as="geometry" />
        </mxCell>
        <mxCell id="UEzPUAAOIrF-is8g5C7q-77" value="Bucket" style="outlineConnect=0;fontColor=#232F3E;gradientColor=none;fillColor=#277116;strokeColor=none;dashed=0;verticalLabelPosition=bottom;verticalAlign=top;align=center;html=1;fontSize=12;fontStyle=0;aspect=fixed;pointerEvents=1;shape=mxgraph.aws4.bucket_with_objects;labelBackgroundColor=#ffffff;" parent="1" vertex="1">
          <mxGeometry x="1121.54" y="800" width="48.08" height="50" as="geometry" />
        </mxCell>
        <mxCell id="MXCVZ1fmfa9OyLUcDdwy-245" value="" style="edgeStyle=orthogonalEdgeStyle;rounded=0;orthogonalLoop=1;jettySize=auto;html=1;entryX=0.5;entryY=0;entryDx=0;entryDy=0;entryPerimeter=0;" edge="1" parent="1" source="MXCVZ1fmfa9OyLUcDdwy-169" target="MXCVZ1fmfa9OyLUcDdwy-235">
          <mxGeometry relative="1" as="geometry">
            <Array as="points">
              <mxPoint x="580" y="100" />
              <mxPoint x="294" y="100" />
            </Array>
          </mxGeometry>
        </mxCell>
        <mxCell id="MXCVZ1fmfa9OyLUcDdwy-169" value="" style="outlineConnect=0;fontColor=#232F3E;gradientColor=none;fillColor=#232F3E;strokeColor=none;dashed=0;verticalLabelPosition=bottom;verticalAlign=top;align=center;html=1;fontSize=12;fontStyle=0;aspect=fixed;pointerEvents=1;shape=mxgraph.aws4.internet_alt2;" vertex="1" parent="1">
          <mxGeometry x="560" y="20" width="40" height="40" as="geometry" />
        </mxCell>
        <mxCell id="ygy6zVu2oY6K5pSB8dA6-21" value="" style="edgeStyle=orthogonalEdgeStyle;rounded=0;orthogonalLoop=1;jettySize=auto;html=1;" edge="1" parent="1" source="MXCVZ1fmfa9OyLUcDdwy-171" target="UEzPUAAOIrF-is8g5C7q-77">
          <mxGeometry relative="1" as="geometry">
            <mxPoint x="760.0756414187877" y="40" as="targetPoint" />
            <Array as="points">
              <mxPoint x="1240" y="40" />
              <mxPoint x="1240" y="825" />
            </Array>
          </mxGeometry>
        </mxCell>
        <mxCell id="MXCVZ1fmfa9OyLUcDdwy-171" value="" style="outlineConnect=0;fontColor=#232F3E;gradientColor=none;fillColor=#232F3E;strokeColor=none;dashed=0;verticalLabelPosition=bottom;verticalAlign=top;align=center;html=1;fontSize=12;fontStyle=0;aspect=fixed;pointerEvents=1;shape=mxgraph.aws4.users;" vertex="1" parent="1">
          <mxGeometry x="610" y="20" width="40" height="40" as="geometry" />
        </mxCell>
        <mxCell id="MXCVZ1fmfa9OyLUcDdwy-179" value="Private subnet" style="points=[[0,0],[0.25,0],[0.5,0],[0.75,0],[1,0],[1,0.25],[1,0.5],[1,0.75],[1,1],[0.75,1],[0.5,1],[0.25,1],[0,1],[0,0.75],[0,0.5],[0,0.25]];outlineConnect=0;gradientColor=none;html=1;whiteSpace=wrap;fontSize=12;fontStyle=0;shape=mxgraph.aws4.group;grIcon=mxgraph.aws4.group_security_group;grStroke=0;strokeColor=#147EBA;fillColor=#E6F2F8;verticalAlign=top;align=left;spacingLeft=30;fontColor=#147EBA;dashed=0;" vertex="1" parent="1">
          <mxGeometry x="680" y="800" width="200" height="120" as="geometry" />
        </mxCell>
        <mxCell id="MXCVZ1fmfa9OyLUcDdwy-216" value="" style="edgeStyle=orthogonalEdgeStyle;rounded=0;orthogonalLoop=1;jettySize=auto;html=1;entryX=0.5;entryY=0;entryDx=0;entryDy=0;entryPerimeter=0;" edge="1" parent="1" source="MXCVZ1fmfa9OyLUcDdwy-182" target="MXCVZ1fmfa9OyLUcDdwy-212">
          <mxGeometry relative="1" as="geometry" />
        </mxCell>
        <mxCell id="MXCVZ1fmfa9OyLUcDdwy-225" style="edgeStyle=orthogonalEdgeStyle;rounded=0;orthogonalLoop=1;jettySize=auto;html=1;exitX=1;exitY=0.75;exitDx=0;exitDy=0;entryX=0.75;entryY=0;entryDx=0;entryDy=0;" edge="1" parent="1" source="MXCVZ1fmfa9OyLUcDdwy-182" target="MXCVZ1fmfa9OyLUcDdwy-228">
          <mxGeometry relative="1" as="geometry">
            <Array as="points">
              <mxPoint x="870" y="450" />
              <mxPoint x="870" y="780" />
              <mxPoint x="588" y="780" />
            </Array>
          </mxGeometry>
        </mxCell>
        <mxCell id="ygy6zVu2oY6K5pSB8dA6-7" value="" style="edgeStyle=orthogonalEdgeStyle;rounded=0;orthogonalLoop=1;jettySize=auto;html=1;exitX=1;exitY=0.5;exitDx=0;exitDy=0;" edge="1" parent="1" source="MXCVZ1fmfa9OyLUcDdwy-182" target="ygy6zVu2oY6K5pSB8dA6-1">
          <mxGeometry relative="1" as="geometry">
            <mxPoint x="880" y="420" as="sourcePoint" />
            <mxPoint x="920" y="420" as="targetPoint" />
            <Array as="points">
              <mxPoint x="960" y="420" />
              <mxPoint x="960" y="340" />
            </Array>
          </mxGeometry>
        </mxCell>
        <mxCell id="MXCVZ1fmfa9OyLUcDdwy-183" value="Public subnet" style="points=[[0,0],[0.25,0],[0.5,0],[0.75,0],[1,0],[1,0.25],[1,0.5],[1,0.75],[1,1],[0.75,1],[0.5,1],[0.25,1],[0,1],[0,0.75],[0,0.5],[0,0.25]];outlineConnect=0;gradientColor=none;html=1;whiteSpace=wrap;fontSize=12;fontStyle=0;shape=mxgraph.aws4.group;grIcon=mxgraph.aws4.group_security_group;grStroke=0;strokeColor=#248814;fillColor=#E9F3E6;verticalAlign=top;align=left;spacingLeft=30;fontColor=#248814;dashed=0;" vertex="1" parent="1">
          <mxGeometry x="160" y="200" width="120" height="120" as="geometry" />
        </mxCell>
        <mxCell id="MXCVZ1fmfa9OyLUcDdwy-178" value="Public subnet" style="points=[[0,0],[0.25,0],[0.5,0],[0.75,0],[1,0],[1,0.25],[1,0.5],[1,0.75],[1,1],[0.75,1],[0.5,1],[0.25,1],[0,1],[0,0.75],[0,0.5],[0,0.25]];outlineConnect=0;gradientColor=none;html=1;whiteSpace=wrap;fontSize=12;fontStyle=0;shape=mxgraph.aws4.group;grIcon=mxgraph.aws4.group_security_group;grStroke=0;strokeColor=#248814;fillColor=#E9F3E6;verticalAlign=top;align=left;spacingLeft=30;fontColor=#248814;dashed=0;" vertex="1" parent="1">
          <mxGeometry x="670" y="200" width="170" height="110" as="geometry" />
        </mxCell>
        <mxCell id="MXCVZ1fmfa9OyLUcDdwy-236" value="" style="edgeStyle=orthogonalEdgeStyle;rounded=0;orthogonalLoop=1;jettySize=auto;html=1;" edge="1" parent="1" source="MXCVZ1fmfa9OyLUcDdwy-175" target="MXCVZ1fmfa9OyLUcDdwy-185">
          <mxGeometry relative="1" as="geometry" />
        </mxCell>
        <mxCell id="MXCVZ1fmfa9OyLUcDdwy-175" value="" style="points=[[0,0,0],[0.25,0,0],[0.5,0,0],[0.75,0,0],[1,0,0],[0,1,0],[0.25,1,0],[0.5,1,0],[0.75,1,0],[1,1,0],[0,0.25,0],[0,0.5,0],[0,0.75,0],[1,0.25,0],[1,0.5,0],[1,0.75,0]];outlineConnect=0;fontColor=#232F3E;gradientColor=#F78E04;gradientDirection=north;fillColor=#D05C17;strokeColor=#ffffff;dashed=0;verticalLabelPosition=bottom;verticalAlign=top;align=center;html=1;fontSize=12;fontStyle=0;aspect=fixed;shape=mxgraph.aws4.resourceIcon;resIcon=mxgraph.aws4.elastic_load_balancing;" vertex="1" parent="1">
          <mxGeometry x="632" y="236" width="48" height="48" as="geometry" />
        </mxCell>
        <mxCell id="MXCVZ1fmfa9OyLUcDdwy-214" value="" style="edgeStyle=orthogonalEdgeStyle;rounded=0;orthogonalLoop=1;jettySize=auto;html=1;entryX=0.5;entryY=0;entryDx=0;entryDy=0;entryPerimeter=0;" edge="1" parent="1" source="MXCVZ1fmfa9OyLUcDdwy-185" target="MXCVZ1fmfa9OyLUcDdwy-212">
          <mxGeometry relative="1" as="geometry" />
        </mxCell>
        <mxCell id="MXCVZ1fmfa9OyLUcDdwy-234" value="" style="edgeStyle=orthogonalEdgeStyle;rounded=0;orthogonalLoop=1;jettySize=auto;html=1;entryX=0.25;entryY=0;entryDx=0;entryDy=0;exitX=0;exitY=0.5;exitDx=0;exitDy=0;" edge="1" parent="1" source="MXCVZ1fmfa9OyLUcDdwy-185" target="MXCVZ1fmfa9OyLUcDdwy-228">
          <mxGeometry relative="1" as="geometry">
            <Array as="points">
              <mxPoint x="440" y="420" />
              <mxPoint x="440" y="780" />
              <mxPoint x="488" y="780" />
            </Array>
          </mxGeometry>
        </mxCell>
        <mxCell id="MXCVZ1fmfa9OyLUcDdwy-241" value="" style="edgeStyle=orthogonalEdgeStyle;rounded=0;orthogonalLoop=1;jettySize=auto;html=1;entryX=0;entryY=0.5;entryDx=0;entryDy=0;" edge="1" parent="1" source="MXCVZ1fmfa9OyLUcDdwy-186" target="MXCVZ1fmfa9OyLUcDdwy-228">
          <mxGeometry relative="1" as="geometry">
            <mxPoint x="284" y="560" as="targetPoint" />
          </mxGeometry>
        </mxCell>
        <mxCell id="ygy6zVu2oY6K5pSB8dA6-13" value="" style="edgeStyle=orthogonalEdgeStyle;rounded=0;orthogonalLoop=1;jettySize=auto;html=1;" edge="1" parent="1" source="MXCVZ1fmfa9OyLUcDdwy-186" target="UEzPUAAOIrF-is8g5C7q-77">
          <mxGeometry relative="1" as="geometry">
            <mxPoint x="284" y="560" as="targetPoint" />
            <Array as="points">
              <mxPoint x="284" y="930" />
              <mxPoint x="1146" y="930" />
            </Array>
          </mxGeometry>
        </mxCell>
        <mxCell id="MXCVZ1fmfa9OyLUcDdwy-186" value="Private subnet" style="points=[[0,0],[0.25,0],[0.5,0],[0.75,0],[1,0],[1,0.25],[1,0.5],[1,0.75],[1,1],[0.75,1],[0.5,1],[0.25,1],[0,1],[0,0.75],[0,0.5],[0,0.25]];outlineConnect=0;gradientColor=none;html=1;whiteSpace=wrap;fontSize=12;fontStyle=0;shape=mxgraph.aws4.group;grIcon=mxgraph.aws4.group_security_group;grStroke=0;strokeColor=#147EBA;fillColor=#E6F2F8;verticalAlign=top;align=left;spacingLeft=30;fontColor=#147EBA;dashed=0;" vertex="1" parent="1">
          <mxGeometry x="204" y="360" width="160" height="120" as="geometry" />
        </mxCell>
        <mxCell id="MXCVZ1fmfa9OyLUcDdwy-190" value="" style="group" vertex="1" connectable="0" parent="1">
          <mxGeometry x="740" y="842" width="90" height="48" as="geometry" />
        </mxCell>
        <mxCell id="MXCVZ1fmfa9OyLUcDdwy-187" value="" style="points=[[0,0,0],[0.25,0,0],[0.5,0,0],[0.75,0,0],[1,0,0],[0,1,0],[0.25,1,0],[0.5,1,0],[0.75,1,0],[1,1,0],[0,0.25,0],[0,0.5,0],[0,0.75,0],[1,0.25,0],[1,0.5,0],[1,0.75,0]];outlineConnect=0;fontColor=#232F3E;gradientColor=#4D72F3;gradientDirection=north;fillColor=#3334B9;strokeColor=#ffffff;dashed=0;verticalLabelPosition=bottom;verticalAlign=top;align=center;html=1;fontSize=12;fontStyle=0;aspect=fixed;shape=mxgraph.aws4.resourceIcon;resIcon=mxgraph.aws4.rds;" vertex="1" parent="MXCVZ1fmfa9OyLUcDdwy-190">
          <mxGeometry y="7" width="48" height="48" as="geometry" />
        </mxCell>
        <mxCell id="MXCVZ1fmfa9OyLUcDdwy-188" value="RDS&lt;br&gt;slave" style="text;html=1;strokeColor=none;fillColor=none;align=center;verticalAlign=middle;whiteSpace=wrap;rounded=0;" vertex="1" parent="MXCVZ1fmfa9OyLUcDdwy-190">
          <mxGeometry x="49" y="7" width="41" height="40" as="geometry" />
        </mxCell>
        <mxCell id="MXCVZ1fmfa9OyLUcDdwy-192" value="" style="group" vertex="1" connectable="0" parent="1">
          <mxGeometry x="540" y="390" width="40" height="70" as="geometry" />
        </mxCell>
        <mxCell id="MXCVZ1fmfa9OyLUcDdwy-180" value="" style="points=[[0,0,0],[0.25,0,0],[0.5,0,0],[0.75,0,0],[1,0,0],[0,1,0],[0.25,1,0],[0.5,1,0],[0.75,1,0],[1,1,0],[0,0.25,0],[0,0.5,0],[0,0.75,0],[1,0.25,0],[1,0.5,0],[1,0.75,0]];outlineConnect=0;fontColor=#232F3E;gradientColor=#F78E04;gradientDirection=north;fillColor=#D05C17;strokeColor=#ffffff;dashed=0;verticalLabelPosition=bottom;verticalAlign=top;align=center;html=1;fontSize=12;fontStyle=0;aspect=fixed;shape=mxgraph.aws4.resourceIcon;resIcon=mxgraph.aws4.ec2;" vertex="1" parent="MXCVZ1fmfa9OyLUcDdwy-192">
          <mxGeometry y="30" width="40" height="40" as="geometry" />
        </mxCell>
        <mxCell id="MXCVZ1fmfa9OyLUcDdwy-191" value="API&lt;br&gt;server" style="text;html=1;strokeColor=none;fillColor=none;align=center;verticalAlign=middle;whiteSpace=wrap;rounded=0;" vertex="1" parent="MXCVZ1fmfa9OyLUcDdwy-192">
          <mxGeometry width="40" height="20" as="geometry" />
        </mxCell>
        <mxCell id="MXCVZ1fmfa9OyLUcDdwy-195" value="" style="group" vertex="1" connectable="0" parent="1">
          <mxGeometry x="780" y="400" width="40" height="70" as="geometry" />
        </mxCell>
        <mxCell id="MXCVZ1fmfa9OyLUcDdwy-199" value="" style="group" vertex="1" connectable="0" parent="MXCVZ1fmfa9OyLUcDdwy-195">
          <mxGeometry x="-80" width="40" height="70" as="geometry" />
        </mxCell>
        <mxCell id="MXCVZ1fmfa9OyLUcDdwy-207" value="" style="group" vertex="1" connectable="0" parent="MXCVZ1fmfa9OyLUcDdwy-199">
          <mxGeometry x="40" width="40" height="70" as="geometry" />
        </mxCell>
        <mxCell id="MXCVZ1fmfa9OyLUcDdwy-213" value="" style="group" vertex="1" connectable="0" parent="MXCVZ1fmfa9OyLUcDdwy-207">
          <mxGeometry y="-10" width="40" height="70" as="geometry" />
        </mxCell>
        <mxCell id="MXCVZ1fmfa9OyLUcDdwy-193" value="" style="points=[[0,0,0],[0.25,0,0],[0.5,0,0],[0.75,0,0],[1,0,0],[0,1,0],[0.25,1,0],[0.5,1,0],[0.75,1,0],[1,1,0],[0,0.25,0],[0,0.5,0],[0,0.75,0],[1,0.25,0],[1,0.5,0],[1,0.75,0]];outlineConnect=0;fontColor=#232F3E;gradientColor=#F78E04;gradientDirection=north;fillColor=#D05C17;strokeColor=#ffffff;dashed=0;verticalLabelPosition=bottom;verticalAlign=top;align=center;html=1;fontSize=12;fontStyle=0;aspect=fixed;shape=mxgraph.aws4.resourceIcon;resIcon=mxgraph.aws4.ec2;" vertex="1" parent="MXCVZ1fmfa9OyLUcDdwy-213">
          <mxGeometry y="30" width="40" height="40" as="geometry" />
        </mxCell>
        <mxCell id="MXCVZ1fmfa9OyLUcDdwy-194" value="API&lt;br&gt;server" style="text;html=1;strokeColor=none;fillColor=none;align=center;verticalAlign=middle;whiteSpace=wrap;rounded=0;" vertex="1" parent="MXCVZ1fmfa9OyLUcDdwy-213">
          <mxGeometry width="40" height="20" as="geometry" />
        </mxCell>
        <mxCell id="MXCVZ1fmfa9OyLUcDdwy-233" value="" style="edgeStyle=orthogonalEdgeStyle;rounded=0;orthogonalLoop=1;jettySize=auto;html=1;entryX=0.5;entryY=0;entryDx=0;entryDy=0;" edge="1" parent="1" source="MXCVZ1fmfa9OyLUcDdwy-200" target="MXCVZ1fmfa9OyLUcDdwy-228">
          <mxGeometry relative="1" as="geometry">
            <mxPoint x="560" y="840" as="targetPoint" />
          </mxGeometry>
        </mxCell>
        <mxCell id="ygy6zVu2oY6K5pSB8dA6-16" value="" style="edgeStyle=orthogonalEdgeStyle;rounded=0;orthogonalLoop=1;jettySize=auto;html=1;" edge="1" parent="1" source="MXCVZ1fmfa9OyLUcDdwy-200" target="ygy6zVu2oY6K5pSB8dA6-1">
          <mxGeometry relative="1" as="geometry">
            <mxPoint x="1110" y="340" as="targetPoint" />
            <Array as="points">
              <mxPoint x="600" y="620" />
              <mxPoint x="960" y="620" />
              <mxPoint x="960" y="340" />
            </Array>
          </mxGeometry>
        </mxCell>
        <mxCell id="MXCVZ1fmfa9OyLUcDdwy-200" value="Private subnet" style="points=[[0,0],[0.25,0],[0.5,0],[0.75,0],[1,0],[1,0.25],[1,0.5],[1,0.75],[1,1],[0.75,1],[0.5,1],[0.25,1],[0,1],[0,0.75],[0,0.5],[0,0.25]];outlineConnect=0;gradientColor=none;html=1;whiteSpace=wrap;fontSize=12;fontStyle=0;shape=mxgraph.aws4.group;grIcon=mxgraph.aws4.group_security_group;grStroke=0;strokeColor=#147EBA;fillColor=#E6F2F8;verticalAlign=top;align=left;spacingLeft=30;fontColor=#147EBA;dashed=0;" vertex="1" parent="1">
          <mxGeometry x="480" y="640" width="160" height="120" as="geometry" />
        </mxCell>
        <mxCell id="MXCVZ1fmfa9OyLUcDdwy-201" value="Public subnet" style="points=[[0,0],[0.25,0],[0.5,0],[0.75,0],[1,0],[1,0.25],[1,0.5],[1,0.75],[1,1],[0.75,1],[0.5,1],[0.25,1],[0,1],[0,0.75],[0,0.5],[0,0.25]];outlineConnect=0;gradientColor=none;html=1;whiteSpace=wrap;fontSize=12;fontStyle=0;shape=mxgraph.aws4.group;grIcon=mxgraph.aws4.group_security_group;grStroke=0;strokeColor=#248814;fillColor=#E9F3E6;verticalAlign=top;align=left;spacingLeft=30;fontColor=#248814;dashed=0;" vertex="1" parent="1">
          <mxGeometry x="298" y="200" width="122" height="120" as="geometry" />
        </mxCell>
        <mxCell id="MXCVZ1fmfa9OyLUcDdwy-206" value="" style="group" vertex="1" connectable="0" parent="1">
          <mxGeometry x="540" y="670" width="40" height="70" as="geometry" />
        </mxCell>
        <mxCell id="MXCVZ1fmfa9OyLUcDdwy-202" value="" style="outlineConnect=0;fontColor=#232F3E;gradientColor=none;fillColor=#D86613;strokeColor=none;dashed=0;verticalLabelPosition=bottom;verticalAlign=top;align=center;html=1;fontSize=12;fontStyle=0;aspect=fixed;pointerEvents=1;shape=mxgraph.aws4.c5_instance;" vertex="1" parent="MXCVZ1fmfa9OyLUcDdwy-206">
          <mxGeometry y="30" width="40" height="40" as="geometry" />
        </mxCell>
        <mxCell id="MXCVZ1fmfa9OyLUcDdwy-205" value="AI&lt;br&gt;server" style="text;html=1;strokeColor=none;fillColor=none;align=center;verticalAlign=middle;whiteSpace=wrap;rounded=0;" vertex="1" parent="MXCVZ1fmfa9OyLUcDdwy-206">
          <mxGeometry width="40" height="20" as="geometry" />
        </mxCell>
        <mxCell id="MXCVZ1fmfa9OyLUcDdwy-210" value="Private subnet" style="points=[[0,0],[0.25,0],[0.5,0],[0.75,0],[1,0],[1,0.25],[1,0.5],[1,0.75],[1,1],[0.75,1],[0.5,1],[0.25,1],[0,1],[0,0.75],[0,0.5],[0,0.25]];outlineConnect=0;gradientColor=none;html=1;whiteSpace=wrap;fontSize=12;fontStyle=0;shape=mxgraph.aws4.group;grIcon=mxgraph.aws4.group_security_group;grStroke=0;strokeColor=#147EBA;fillColor=#E6F2F8;verticalAlign=top;align=left;spacingLeft=30;fontColor=#147EBA;dashed=0;" vertex="1" parent="1">
          <mxGeometry x="480" y="520" width="160" height="80" as="geometry" />
        </mxCell>
        <mxCell id="MXCVZ1fmfa9OyLUcDdwy-211" value="Private subnet" style="points=[[0,0],[0.25,0],[0.5,0],[0.75,0],[1,0],[1,0.25],[1,0.5],[1,0.75],[1,1],[0.75,1],[0.5,1],[0.25,1],[0,1],[0,0.75],[0,0.5],[0,0.25]];outlineConnect=0;gradientColor=none;html=1;whiteSpace=wrap;fontSize=12;fontStyle=0;shape=mxgraph.aws4.group;grIcon=mxgraph.aws4.group_security_group;grStroke=0;strokeColor=#147EBA;fillColor=#E6F2F8;verticalAlign=top;align=left;spacingLeft=30;fontColor=#147EBA;dashed=0;" vertex="1" parent="1">
          <mxGeometry x="670" y="520" width="170" height="80" as="geometry" />
        </mxCell>
        <mxCell id="MXCVZ1fmfa9OyLUcDdwy-221" value="" style="edgeStyle=orthogonalEdgeStyle;rounded=0;orthogonalLoop=1;jettySize=auto;html=1;" edge="1" parent="1" source="MXCVZ1fmfa9OyLUcDdwy-212" target="MXCVZ1fmfa9OyLUcDdwy-217">
          <mxGeometry relative="1" as="geometry" />
        </mxCell>
        <mxCell id="MXCVZ1fmfa9OyLUcDdwy-212" value="" style="points=[[0,0,0],[0.25,0,0],[0.5,0,0],[0.75,0,0],[1,0,0],[0,1,0],[0.25,1,0],[0.5,1,0],[0.75,1,0],[1,1,0],[0,0.25,0],[0,0.5,0],[0,0.75,0],[1,0.25,0],[1,0.5,0],[1,0.75,0]];outlineConnect=0;fontColor=#232F3E;gradientColor=#F78E04;gradientDirection=north;fillColor=#D05C17;strokeColor=#ffffff;dashed=0;verticalLabelPosition=bottom;verticalAlign=top;align=center;html=1;fontSize=12;fontStyle=0;aspect=fixed;shape=mxgraph.aws4.resourceIcon;resIcon=mxgraph.aws4.elastic_load_balancing;" vertex="1" parent="1">
          <mxGeometry x="632" y="536" width="48" height="48" as="geometry" />
        </mxCell>
        <mxCell id="MXCVZ1fmfa9OyLUcDdwy-227" value="" style="edgeStyle=orthogonalEdgeStyle;rounded=0;orthogonalLoop=1;jettySize=auto;html=1;entryX=0.75;entryY=0;entryDx=0;entryDy=0;" edge="1" parent="1" source="MXCVZ1fmfa9OyLUcDdwy-217" target="MXCVZ1fmfa9OyLUcDdwy-228">
          <mxGeometry relative="1" as="geometry">
            <mxPoint x="760" y="840" as="targetPoint" />
            <Array as="points">
              <mxPoint x="760" y="780" />
              <mxPoint x="588" y="780" />
            </Array>
          </mxGeometry>
        </mxCell>
        <mxCell id="ygy6zVu2oY6K5pSB8dA6-9" value="" style="edgeStyle=orthogonalEdgeStyle;rounded=0;orthogonalLoop=1;jettySize=auto;html=1;" edge="1" parent="1" source="MXCVZ1fmfa9OyLUcDdwy-217">
          <mxGeometry relative="1" as="geometry">
            <mxPoint x="1120" y="340" as="targetPoint" />
            <Array as="points">
              <mxPoint x="960" y="700" />
              <mxPoint x="960" y="340" />
            </Array>
          </mxGeometry>
        </mxCell>
        <mxCell id="MXCVZ1fmfa9OyLUcDdwy-217" value="Private subnet" style="points=[[0,0],[0.25,0],[0.5,0],[0.75,0],[1,0],[1,0.25],[1,0.5],[1,0.75],[1,1],[0.75,1],[0.5,1],[0.25,1],[0,1],[0,0.75],[0,0.5],[0,0.25]];outlineConnect=0;gradientColor=none;html=1;whiteSpace=wrap;fontSize=12;fontStyle=0;shape=mxgraph.aws4.group;grIcon=mxgraph.aws4.group_security_group;grStroke=0;strokeColor=#147EBA;fillColor=#E6F2F8;verticalAlign=top;align=left;spacingLeft=30;fontColor=#147EBA;dashed=0;" vertex="1" parent="1">
          <mxGeometry x="680" y="640" width="160" height="120" as="geometry" />
        </mxCell>
        <mxCell id="MXCVZ1fmfa9OyLUcDdwy-218" value="" style="group" vertex="1" connectable="0" parent="1">
          <mxGeometry x="740" y="670" width="40" height="70" as="geometry" />
        </mxCell>
        <mxCell id="MXCVZ1fmfa9OyLUcDdwy-219" value="" style="outlineConnect=0;fontColor=#232F3E;gradientColor=none;fillColor=#D86613;strokeColor=none;dashed=0;verticalLabelPosition=bottom;verticalAlign=top;align=center;html=1;fontSize=12;fontStyle=0;aspect=fixed;pointerEvents=1;shape=mxgraph.aws4.c5_instance;" vertex="1" parent="MXCVZ1fmfa9OyLUcDdwy-218">
          <mxGeometry y="30" width="40" height="40" as="geometry" />
        </mxCell>
        <mxCell id="MXCVZ1fmfa9OyLUcDdwy-220" value="AI&lt;br&gt;server" style="text;html=1;strokeColor=none;fillColor=none;align=center;verticalAlign=middle;whiteSpace=wrap;rounded=0;" vertex="1" parent="MXCVZ1fmfa9OyLUcDdwy-218">
          <mxGeometry width="40" height="20" as="geometry" />
        </mxCell>
        <mxCell id="MXCVZ1fmfa9OyLUcDdwy-222" value="" style="edgeStyle=orthogonalEdgeStyle;rounded=0;orthogonalLoop=1;jettySize=auto;html=1;entryX=0.5;entryY=0;entryDx=0;entryDy=0;exitX=0.5;exitY=1;exitDx=0;exitDy=0;exitPerimeter=0;" edge="1" parent="1" source="MXCVZ1fmfa9OyLUcDdwy-212" target="MXCVZ1fmfa9OyLUcDdwy-200">
          <mxGeometry relative="1" as="geometry">
            <mxPoint x="666" y="594" as="sourcePoint" />
            <mxPoint x="770" y="650" as="targetPoint" />
          </mxGeometry>
        </mxCell>
        <mxCell id="MXCVZ1fmfa9OyLUcDdwy-228" value="Private subnet" style="points=[[0,0],[0.25,0],[0.5,0],[0.75,0],[1,0],[1,0.25],[1,0.5],[1,0.75],[1,1],[0.75,1],[0.5,1],[0.25,1],[0,1],[0,0.75],[0,0.5],[0,0.25]];outlineConnect=0;gradientColor=none;html=1;whiteSpace=wrap;fontSize=12;fontStyle=0;shape=mxgraph.aws4.group;grIcon=mxgraph.aws4.group_security_group;grStroke=0;strokeColor=#147EBA;fillColor=#E6F2F8;verticalAlign=top;align=left;spacingLeft=30;fontColor=#147EBA;dashed=0;" vertex="1" parent="1">
          <mxGeometry x="438" y="800" width="200" height="120" as="geometry" />
        </mxCell>
        <mxCell id="MXCVZ1fmfa9OyLUcDdwy-230" value="" style="points=[[0,0,0],[0.25,0,0],[0.5,0,0],[0.75,0,0],[1,0,0],[0,1,0],[0.25,1,0],[0.5,1,0],[0.75,1,0],[1,1,0],[0,0.25,0],[0,0.5,0],[0,0.75,0],[1,0.25,0],[1,0.5,0],[1,0.75,0]];outlineConnect=0;fontColor=#232F3E;gradientColor=#4D72F3;gradientDirection=north;fillColor=#3334B9;strokeColor=#ffffff;dashed=0;verticalLabelPosition=bottom;verticalAlign=top;align=center;html=1;fontSize=12;fontStyle=0;aspect=fixed;shape=mxgraph.aws4.resourceIcon;resIcon=mxgraph.aws4.rds;" vertex="1" parent="1">
          <mxGeometry x="495" y="850" width="48" height="48" as="geometry" />
        </mxCell>
        <mxCell id="MXCVZ1fmfa9OyLUcDdwy-231" value="RDS&lt;br&gt;master" style="text;html=1;strokeColor=none;fillColor=none;align=center;verticalAlign=middle;whiteSpace=wrap;rounded=0;" vertex="1" parent="1">
          <mxGeometry x="544" y="850" width="41" height="40" as="geometry" />
        </mxCell>
        <mxCell id="MXCVZ1fmfa9OyLUcDdwy-242" value="" style="edgeStyle=orthogonalEdgeStyle;rounded=0;orthogonalLoop=1;jettySize=auto;html=1;" edge="1" parent="1" source="MXCVZ1fmfa9OyLUcDdwy-235">
          <mxGeometry relative="1" as="geometry">
            <mxPoint x="278" y="360" as="targetPoint" />
          </mxGeometry>
        </mxCell>
        <mxCell id="MXCVZ1fmfa9OyLUcDdwy-235" value="" style="points=[[0,0,0],[0.25,0,0],[0.5,0,0],[0.75,0,0],[1,0,0],[0,1,0],[0.25,1,0],[0.5,1,0],[0.75,1,0],[1,1,0],[0,0.25,0],[0,0.5,0],[0,0.75,0],[1,0.25,0],[1,0.5,0],[1,0.75,0]];outlineConnect=0;fontColor=#232F3E;gradientColor=#F78E04;gradientDirection=north;fillColor=#D05C17;strokeColor=#ffffff;dashed=0;verticalLabelPosition=bottom;verticalAlign=top;align=center;html=1;fontSize=12;fontStyle=0;aspect=fixed;shape=mxgraph.aws4.resourceIcon;resIcon=mxgraph.aws4.elastic_load_balancing;" vertex="1" parent="1">
          <mxGeometry x="270" y="236" width="48" height="48" as="geometry" />
        </mxCell>
        <mxCell id="MXCVZ1fmfa9OyLUcDdwy-237" value="" style="edgeStyle=orthogonalEdgeStyle;rounded=0;orthogonalLoop=1;jettySize=auto;html=1;entryX=0.5;entryY=0;entryDx=0;entryDy=0;exitX=0.5;exitY=1;exitDx=0;exitDy=0;exitPerimeter=0;" edge="1" parent="1" source="MXCVZ1fmfa9OyLUcDdwy-175" target="MXCVZ1fmfa9OyLUcDdwy-182">
          <mxGeometry relative="1" as="geometry">
            <mxPoint x="666" y="294" as="sourcePoint" />
            <mxPoint x="570" y="370" as="targetPoint" />
          </mxGeometry>
        </mxCell>
        <mxCell id="MXCVZ1fmfa9OyLUcDdwy-238" value="" style="points=[[0,0,0],[0.25,0,0],[0.5,0,0],[0.75,0,0],[1,0,0],[0,1,0],[0.25,1,0],[0.5,1,0],[0.75,1,0],[1,1,0],[0,0.25,0],[0,0.5,0],[0,0.75,0],[1,0.25,0],[1,0.5,0],[1,0.75,0]];outlineConnect=0;fontColor=#232F3E;gradientColor=#F78E04;gradientDirection=north;fillColor=#D05C17;strokeColor=#ffffff;dashed=0;verticalLabelPosition=bottom;verticalAlign=top;align=center;html=1;fontSize=12;fontStyle=0;aspect=fixed;shape=mxgraph.aws4.resourceIcon;resIcon=mxgraph.aws4.ec2;" vertex="1" parent="1">
          <mxGeometry x="258" y="430" width="40" height="40" as="geometry" />
        </mxCell>
        <mxCell id="MXCVZ1fmfa9OyLUcDdwy-239" value="CMS&lt;br&gt;server" style="text;html=1;strokeColor=none;fillColor=none;align=center;verticalAlign=middle;whiteSpace=wrap;rounded=0;" vertex="1" parent="1">
          <mxGeometry x="258" y="400" width="40" height="20" as="geometry" />
        </mxCell>
        <mxCell id="MXCVZ1fmfa9OyLUcDdwy-244" value="" style="group" vertex="1" connectable="0" parent="1">
          <mxGeometry x="545" y="230" width="40" height="70" as="geometry" />
        </mxCell>
        <mxCell id="MXCVZ1fmfa9OyLUcDdwy-204" value="" style="points=[[0,0,0],[0.25,0,0],[0.5,0,0],[0.75,0,0],[1,0,0],[0,1,0],[0.25,1,0],[0.5,1,0],[0.75,1,0],[1,1,0],[0,0.25,0],[0,0.5,0],[0,0.75,0],[1,0.25,0],[1,0.5,0],[1,0.75,0]];outlineConnect=0;fontColor=#232F3E;gradientColor=#F78E04;gradientDirection=north;fillColor=#D05C17;strokeColor=#ffffff;dashed=0;verticalLabelPosition=bottom;verticalAlign=top;align=center;html=1;fontSize=12;fontStyle=0;aspect=fixed;shape=mxgraph.aws4.resourceIcon;resIcon=mxgraph.aws4.ec2;" vertex="1" parent="MXCVZ1fmfa9OyLUcDdwy-244">
          <mxGeometry y="30" width="40" height="40" as="geometry" />
        </mxCell>
        <mxCell id="MXCVZ1fmfa9OyLUcDdwy-243" value="bastion&lt;br&gt;server" style="text;html=1;strokeColor=none;fillColor=none;align=center;verticalAlign=middle;whiteSpace=wrap;rounded=0;" vertex="1" parent="MXCVZ1fmfa9OyLUcDdwy-244">
          <mxGeometry width="40" height="20" as="geometry" />
        </mxCell>
        <mxCell id="MXCVZ1fmfa9OyLUcDdwy-246" value="" style="edgeStyle=orthogonalEdgeStyle;rounded=0;orthogonalLoop=1;jettySize=auto;html=1;entryX=0.5;entryY=0;entryDx=0;entryDy=0;entryPerimeter=0;" edge="1" parent="1" target="MXCVZ1fmfa9OyLUcDdwy-175">
          <mxGeometry relative="1" as="geometry">
            <mxPoint x="580" y="70" as="sourcePoint" />
            <mxPoint x="660" y="236" as="targetPoint" />
            <Array as="points">
              <mxPoint x="580" y="100" />
              <mxPoint x="656" y="100" />
            </Array>
          </mxGeometry>
        </mxCell>
        <mxCell id="MXCVZ1fmfa9OyLUcDdwy-250" value="SSH" style="text;html=1;strokeColor=none;fillColor=none;align=center;verticalAlign=middle;whiteSpace=wrap;rounded=0;" vertex="1" parent="1">
          <mxGeometry x="380" y="10" width="40" height="20" as="geometry" />
        </mxCell>
        <mxCell id="ygy6zVu2oY6K5pSB8dA6-11" value="" style="edgeStyle=orthogonalEdgeStyle;rounded=0;orthogonalLoop=1;jettySize=auto;html=1;" edge="1" parent="1" source="ygy6zVu2oY6K5pSB8dA6-1" target="ygy6zVu2oY6K5pSB8dA6-3">
          <mxGeometry relative="1" as="geometry">
            <mxPoint x="1240" y="340" as="targetPoint" />
          </mxGeometry>
        </mxCell>
        <mxCell id="ygy6zVu2oY6K5pSB8dA6-19" value="" style="edgeStyle=orthogonalEdgeStyle;rounded=0;orthogonalLoop=1;jettySize=auto;html=1;" edge="1" parent="1" source="ygy6zVu2oY6K5pSB8dA6-1" target="ygy6zVu2oY6K5pSB8dA6-2">
          <mxGeometry relative="1" as="geometry" />
        </mxCell>
        <mxCell id="ygy6zVu2oY6K5pSB8dA6-1" value="Amazon&lt;br&gt;CloudWatch" style="outlineConnect=0;fontColor=#232F3E;gradientColor=#F34482;gradientDirection=north;fillColor=#BC1356;strokeColor=#ffffff;dashed=0;verticalLabelPosition=bottom;verticalAlign=top;align=center;html=1;fontSize=12;fontStyle=0;aspect=fixed;shape=mxgraph.aws4.resourceIcon;resIcon=mxgraph.aws4.cloudwatch;labelBackgroundColor=#ffffff;" vertex="1" parent="1">
          <mxGeometry x="1120" y="320" width="40" height="40" as="geometry" />
        </mxCell>
        <mxCell id="ygy6zVu2oY6K5pSB8dA6-2" value="Amazon Simple&lt;br&gt;Notification Service&lt;br&gt;" style="outlineConnect=0;fontColor=#232F3E;gradientColor=#F34482;gradientDirection=north;fillColor=#BC1356;strokeColor=#ffffff;dashed=0;verticalLabelPosition=bottom;verticalAlign=top;align=center;html=1;fontSize=12;fontStyle=0;aspect=fixed;shape=mxgraph.aws4.resourceIcon;resIcon=mxgraph.aws4.sns;labelBackgroundColor=#ffffff;" vertex="1" parent="1">
          <mxGeometry x="1121" y="200" width="38" height="38" as="geometry" />
        </mxCell>
        <mxCell id="ygy6zVu2oY6K5pSB8dA6-18" value="" style="edgeStyle=orthogonalEdgeStyle;rounded=0;orthogonalLoop=1;jettySize=auto;html=1;" edge="1" parent="1" source="ygy6zVu2oY6K5pSB8dA6-3" target="ygy6zVu2oY6K5pSB8dA6-5">
          <mxGeometry relative="1" as="geometry">
            <mxPoint x="1240" y="500" as="targetPoint" />
          </mxGeometry>
        </mxCell>
        <mxCell id="ygy6zVu2oY6K5pSB8dA6-3" value="Amazon Kinesis&lt;br&gt;Data&amp;nbsp;Firehose" style="outlineConnect=0;fontColor=#232F3E;gradientColor=#945DF2;gradientDirection=north;fillColor=#5A30B5;strokeColor=#ffffff;dashed=0;verticalLabelPosition=bottom;verticalAlign=top;align=center;html=1;fontSize=12;fontStyle=0;aspect=fixed;shape=mxgraph.aws4.resourceIcon;resIcon=mxgraph.aws4.kinesis_data_firehose;labelBackgroundColor=#ffffff;" vertex="1" parent="1">
          <mxGeometry x="1120" y="480" width="40" height="40" as="geometry" />
        </mxCell>
        <mxCell id="ygy6zVu2oY6K5pSB8dA6-5" value="Log&lt;br&gt;Bucket" style="outlineConnect=0;fontColor=#232F3E;gradientColor=none;fillColor=#277116;strokeColor=none;dashed=0;verticalLabelPosition=bottom;verticalAlign=top;align=center;html=1;fontSize=12;fontStyle=0;aspect=fixed;pointerEvents=1;shape=mxgraph.aws4.bucket_with_objects;labelBackgroundColor=#ffffff;" vertex="1" parent="1">
          <mxGeometry x="1280" y="480" width="38.46" height="40" as="geometry" />
        </mxCell>
        <mxCell id="ygy6zVu2oY6K5pSB8dA6-14" value="" style="outlineConnect=0;fontColor=#232F3E;gradientColor=none;fillColor=#5A30B5;strokeColor=none;dashed=0;verticalLabelPosition=bottom;verticalAlign=top;align=center;html=1;fontSize=12;fontStyle=0;aspect=fixed;pointerEvents=1;shape=mxgraph.aws4.endpoints;" vertex="1" parent="1">
          <mxGeometry x="1030" y="900" width="60" height="60" as="geometry" />
        </mxCell>
        <mxCell id="ygy6zVu2oY6K5pSB8dA6-23" value="User" style="text;html=1;strokeColor=none;fillColor=none;align=center;verticalAlign=middle;whiteSpace=wrap;rounded=0;" vertex="1" parent="1">
          <mxGeometry x="660" y="10" width="40" height="20" as="geometry" />
        </mxCell>
        <mxCell id="ygy6zVu2oY6K5pSB8dA6-27" value="" style="edgeStyle=orthogonalEdgeStyle;rounded=0;orthogonalLoop=1;jettySize=auto;html=1;entryX=0;entryY=0.5;entryDx=0;entryDy=0;entryPerimeter=0;" edge="1" parent="1" source="ygy6zVu2oY6K5pSB8dA6-25" target="MXCVZ1fmfa9OyLUcDdwy-204">
          <mxGeometry relative="1" as="geometry">
            <Array as="points">
              <mxPoint x="450" y="40" />
              <mxPoint x="450" y="280" />
            </Array>
          </mxGeometry>
        </mxCell>
        <mxCell id="ygy6zVu2oY6K5pSB8dA6-25" value="" style="outlineConnect=0;fontColor=#232F3E;gradientColor=none;fillColor=#232F3E;strokeColor=none;dashed=0;verticalLabelPosition=bottom;verticalAlign=top;align=center;html=1;fontSize=12;fontStyle=0;aspect=fixed;pointerEvents=1;shape=mxgraph.aws4.user;" vertex="1" parent="1">
          <mxGeometry x="280" y="20" width="40" height="40" as="geometry" />
        </mxCell>
        <mxCell id="ygy6zVu2oY6K5pSB8dA6-26" value="Developer" style="text;html=1;strokeColor=none;fillColor=none;align=center;verticalAlign=middle;whiteSpace=wrap;rounded=0;" vertex="1" parent="1">
          <mxGeometry x="230" y="30" width="40" height="20" as="geometry" />
        </mxCell>
        <mxCell id="ygy6zVu2oY6K5pSB8dA6-30" value="" style="outlineConnect=0;fontColor=#232F3E;gradientColor=none;fillColor=#C7131F;strokeColor=none;dashed=0;verticalLabelPosition=bottom;verticalAlign=top;align=center;html=1;fontSize=12;fontStyle=0;aspect=fixed;pointerEvents=1;shape=mxgraph.aws4.addon;" vertex="1" parent="1">
          <mxGeometry x="339.5" y="10" width="39" height="20" as="geometry" />
        </mxCell>
      </root>
    </mxGraphModel>
  </diagram>
  <diagram id="J4pxXqUMAvUn3l57BpyX" name="Page-2">
    <mxGraphModel dx="1800" dy="1071" grid="1" gridSize="10" guides="1" tooltips="1" connect="1" arrows="1" fold="1" page="1" pageScale="1" pageWidth="827" pageHeight="1169" math="0" shadow="0">
      <root>
        <mxCell id="r5brAZJpesHcvl8jiBo5-0" />
        <mxCell id="r5brAZJpesHcvl8jiBo5-1" parent="r5brAZJpesHcvl8jiBo5-0" />
      </root>
    </mxGraphModel>
  </diagram>
</mxfile>
